#!OML:ASF H:\ManfredObstacles\Project 1\Capture day 2\Session 1\male.ASF
:FULLY-SPECIFIED
:DEGREES
223
root 1.21907 15.5102 -30.3908 -175.93 8.65397 -184.225
lowerback -6.55665 3.38158 -5.3183
upperback 0.176319 5.3844 -4.46894
thorax 3.8156 2.73312 -1.13261
lowerneck -33.0172 0.652279 -0.312474
upperneck 43.729 -6.81161 5.61857
head 27.1982 -2.89363 0.691828
rclavicle -2.5345e-014 -2.8625e-014
rhumerus -28.5429 1.87916 -93.2744
rradius 61.6035
rwrist 16.6081
rhand -8.58033 -8.16952
rfingers 7.12502
rthumb 17.3504 -37.4151
lclavicle -2.5345e-014 -2.8625e-014
lhumerus -115.056 44.6386 -53.9953
lradius 13.8668
lwrist -138.189
lhand -3.72759 10.0217
lfingers 7.12502
lthumb 22.0155 38.7887
rfemur 6.40729 3.82821 16.7035
rtibia 46.7791
rfoot 18.4801 -6.59253
rtoes -19.5956
lfemur -28.1001 -3.67648 -25.9258
ltibia 33.9336
lfoot 5.52683 21.8149
ltoes 2.4726
224
root 1.20569 15.5417 -30.5763 -175.935 9.02292 -184.192
lowerback -6.45817 3.48913 -5.24585
upperback 0.123046 5.50894 -4.47945
thorax 3.71033 2.79882 -1.18099
lowerneck -32.8526 0.732608 -0.20545
upperneck 43.8053 -6.72656 5.4942
head 27.1762 -2.87529 0.61789
rclavicle 3.65267e-014 -1.19271e-014
rhumerus -29.4119 1.50958 -93.3784
rradius 60.2302
rwrist 16.2317
rhand -8.76569 -8.97786
rfingers 7.12502
rthumb 17.172 -38.2391
lclavicle 3.65267e-014 -1.19271e-014
lhumerus -113.48 46.1348 -50.4374
lradius 13.5874
lwrist -135.761
lhand -3.54857 9.9653
lfingers 7.12502
lthumb 22.1874 38.712
rfemur 4.26699 3.84005 16.5701
rtibia 50.1996
rfoot 19.7561 -7.60652
rtoes -20.1467
lfemur -27.1049 -3.15117 -26.1343
ltibia 33.5673
lfoot 4.93812 22.0405
ltoes 2.40402
225
root 1.18971 15.5726 -30.7717 -176.017 9.30864 -184.298
lowerback -6.50571 3.45414 -5.37484
upperback 0.191387 5.48206 -4.47875
thorax 3.79722 2.78067 -1.10607
lowerneck -32.587 0.906725 0.0997589
upperneck 43.7279 -6.37698 5.17279
head 26.8416 -2.73842 0.476479
rclavicle 3.88624e-014 -5.88403e-014
rhumerus -29.9563 1.39601 -93.5726
rradius 58.4557
rwrist 15.6174
rhand -9.01772 -9.54247
rfingers 7.12502
rthumb 16.9294 -38.8246
lclavicle 3.88624e-014 -5.88403e-014
lhumerus -110.006 48.0372 -44.2823
lradius 13.2402
lwrist -131.25
lhand -3.62976 9.88334
lfingers 7.12502
lthumb 22.1095 38.6392
rfemur 2.29581 3.63007 16.2575
rtibia 53.4486
rfoot 20.4054 -9.27908
rtoes -18.0842
lfemur -25.9139 -2.61188 -26.5394
ltibia 33.0344
lfoot 4.33991 22.1931
ltoes 2.2201
226
root 1.17799 15.6116 -30.9572 -175.977 9.56434 -184.533
lowerback -6.4863 3.3558 -5.68717
upperback 0.122768 5.38046 -4.52275
thorax 3.69368 2.73203 -0.993434
lowerneck -32.7152 1.10403 0.234387
upperneck 43.932 -6.12981 4.9761
head 27.0988 -2.67116 0.401238
rclavicle -6.17226e-014 3.4191e-014
rhumerus -30.4914 1.21903 -93.7211
rradius 56.4886
rwrist 15.6105
rhand -8.78808 -9.98096
rfingers 7.12502
rthumb 17.1504 -39.244
lclavicle -6.17226e-014 3.4191e-014
lhumerus -104.909 49.7795 -36.3345
lradius 12.856
lwrist -126.056
lhand -3.2641 9.80498
lfingers 7.12502
lthumb 22.4605 38.5189
rfemur 0.0424184 3.28936 15.8266
rtibia 56.6221
rfoot 20.0767 -11.7641
rtoes -19.4814
lfemur -24.8005 -2.13091 -27.0511
ltibia 32.3244
lfoot 3.8822 22.2939
ltoes 2.02957
227
root 1.16166 15.6451 -31.1539 -176.23 9.53713 -184.816
lowerback -6.36953 3.14622 -5.95435
upperback 0.185267 5.12792 -4.5741
thorax 3.6814 2.60624 -0.927711
lowerneck -32.3215 1.42097 0.656229
upperneck 43.9973 -5.78099 4.71847
head 26.9001 -2.53498 0.266402
rclavicle -3.49364e-014 -2.62396e-014
rhumerus -31.0961 1.05259 -93.8612
rradius 54.4778
rwrist 15.8776
rhand -8.49189 -10.1133
rfingers 7.12502
rthumb 17.4355 -39.3514
lclavicle -3.49364e-014 -2.62396e-014
lhumerus -97.8784 51.1634 -26.0174
lradius 12.6482
lwrist -119.551
lhand -3.52479 9.82162
lfingers 7.12502
lthumb 22.2102 38.5656
rfemur -1.64612 2.69912 15.357
rtibia 59.4813
rfoot 18.5341 -14.2728
rtoes -18.9839
lfemur -23.287 -2.02395 -27.6106
ltibia 31.487
lfoot 3.58926 22.4041
ltoes 1.82239
228
root 1.15257 15.6767 -31.3435 -176.366 9.48246 -185.174
lowerback -6.37802 2.90858 -6.37922
upperback 0.24593 4.86483 -4.62218
thorax 3.72747 2.47182 -0.764622
lowerneck -32.3635 1.64738 0.899019
upperneck 44.0682 -5.43935 4.47028
head 26.9376 -2.41062 0.173201
rclavicle -3.67752e-014 -5.56597e-015
rhumerus -31.6515 0.696438 -93.8567
rradius 52.4316
rwrist 16.5197
rhand -7.88775 -10.2066
rfingers 7.12502
rthumb 18.0168 -39.3921
lclavicle -3.67752e-014 -5.56597e-015
lhumerus -90.1293 51.9762 -14.9884
lradius 12.3853
lwrist -112.431
lhand -3.49285 9.9289
lfingers 7.12502
lthumb 22.2409 38.6692
rfemur -3.54718 2.13705 14.8497
rtibia 62.1521
rfoot 16.7046 -16.3762
rtoes -17.6297
lfemur -21.8931 -1.6895 -28.238
ltibia 30.5376
lfoot 3.26268 22.193
ltoes 1.45915
229
root 1.1454 15.7106 -31.5181 -176.322 9.30461 -185.263
lowerback -6.38225 2.63167 -6.60874
upperback 0.29114 4.5168 -4.58475
thorax 3.76764 2.29309 -0.628555
lowerneck -32.3541 1.88746 1.0257
upperneck 44.2033 -5.1524 4.37708
head 27.0672 -2.32304 0.17523
rclavicle 1.20762e-014 3.02153e-014
rhumerus -32.0187 0.127747 -93.7926
rradius 50.1453
rwrist 17.3104
rhand -7.71898 -9.58689
rfingers 7.12502
rthumb 18.1792 -38.7574
lclavicle 1.20762e-014 3.02153e-014
lhumerus -82.3527 52.1237 -4.00826
lradius 12.5015
lwrist -106.366
lhand -3.42828 9.55256
lfingers 7.12502
lthumb 22.3029 38.2854
rfemur -5.61127 1.55347 14.7567
rtibia 64.5012
rfoot 15.5034 -17.5015
rtoes -15.7117
lfemur -20.762 -1.79639 -28.4951
ltibia 29.6124
lfoot 3.1027 22.2035
ltoes 1.26078
230
root 1.13217 15.7391 -31.7034 -176.393 8.85688 -185.509
lowerback -6.38816 2.26501 -6.91281
upperback 0.416895 4.06751 -4.56953
thorax 3.89741 2.06111 -0.481322
lowerneck -31.7926 -2.21308 3.94904
upperneck 44.7126 -2.39849 1.62481
head 26.8627 1.63627 0.21917
rclavicle -2.07233e-014 2.70347e-014
rhumerus -32.3864 -0.364953 -93.6287
rradius 47.9814
rwrist 17.9107
rhand -7.26709 -9.32716
rfingers 7.12502
rthumb 18.6139 -38.4566
lclavicle -2.07233e-014 2.70347e-014
lhumerus -72.5764 50.8408 9.5771
lradius 12.7627
lwrist -97.8117
lhand -3.09195 9.62897
lfingers 7.12502
lthumb 22.6257 38.3229
rfemur -7.42779 0.674348 14.371
rtibia 66.5724
rfoot 13.8294 -18.4107
rtoes -16.1748
lfemur -19.4871 -2.09431 -28.9615
ltibia 28.7509
lfoot 2.86497 22.1896
ltoes 0.89441
231
root 1.12151 15.7621 -31.8828 -176.435 8.36699 -185.559
lowerback -6.37256 1.92156 -7.0695
upperback 0.556231 3.62438 -4.49312
thorax 4.03756 1.82971 -0.353041
lowerneck -32.3481 -1.94954 4.18968
upperneck 44.7204 -2.11243 1.39773
head 27.1368 1.72538 0.113211
rclavicle 1.02374e-014 -2.54444e-014
rhumerus -32.8914 -1.16461 -93.2333
rradius 45.9278
rwrist 19.3859
rhand -6.3615 -8.88752
rfingers 7.12502
rthumb 19.4848 -37.9312
lclavicle 1.02374e-014 -2.54444e-014
lhumerus -65.4165 49.2582 19.826
lradius 13.1347
lwrist -91.5132
lhand -2.94215 9.3995
lfingers 7.12502
lthumb 22.7695 38.0758
rfemur -9.21716 -0.18345 14.2973
rtibia 68.3848
rfoot 12.4423 -18.9481
rtoes -14.4506
lfemur -18.3248 -2.37722 -29.1996
ltibia 27.9782
lfoot 2.7653 22.0548
ltoes 0.467124
232
root 1.11117 15.7822 -32.0604 -176.413 7.85293 -185.546
lowerback -6.16034 1.63285 -7.12679
upperback 0.419098 3.19744 -4.38223
thorax 3.78198 1.62203 -0.255725
lowerneck -31.6499 -2.05192 3.95303
upperneck 45.0357 -1.85217 1.43049
head 27.2047 1.83105 0.300312
rclavicle 2.127e-014 2.06736e-014
rhumerus -33.8411 -2.13699 -92.6268
rradius 43.8354
rwrist 20.4838
rhand -5.52612 -8.67726
rfingers 7.12502
rthumb 20.2878 -37.6377
lclavicle 2.127e-014 2.06736e-014
lhumerus -58.1168 45.7781 30.7179
lradius 13.7618
lwrist -83.8042
lhand -2.65687 9.39278
lfingers 7.12502
lthumb 23.0432 38.0351
rfemur -10.9895 -0.867702 14.3338
rtibia 69.9301
rfoot 10.9043 -19.4872
rtoes -13.7653
lfemur -17.2809 -2.67508 -29.3556
ltibia 27.2935
lfoot 2.52028 21.9658
ltoes 0.228738
